<svg width="1000" height="1000" viewBox="0 0 1000 1000" fill="none" xmlns="http://www.w3.org/2000/svg">
<ellipse cx="499.671" cy="500.108" rx="489.984" ry="489.984" transform="rotate(25 499.671 500.108)" fill="white"/>
<g opacity="0.68">
<path opacity="0.68" d="M396.247 387.301L327.506 888.543L661.329 516.2L396.247 387.301Z" fill="#F8AD48"/>
</g>
<path d="M335.101 839.178L346.405 866.67L328.311 888.918L335.101 839.178Z" fill="#F8AD48"/>
<path d="M336.602 818.715L411.204 795.306L457.011 742.597L342.491 781.253L336.602 818.715Z" fill="#F8AD48"/>
<path d="M351.188 717.588L537.081 654.017L587.545 599.247L356.354 679.788L351.188 717.588Z" fill="#F8AD48"/>
<path d="M365.259 615.163L647.395 517.111L594.696 491.478L372.014 569.639L365.259 615.163Z" fill="#F8AD48"/>
<path d="M490.954 432.522L384.747 476.112L378.876 511.466L534.107 457.934L490.954 432.522Z" fill="#F8AD48"/>
<path d="M361.819 645.302L418.71 786.108L390.186 818.307L351.256 717.62L361.819 645.302Z" fill="#F8AD48"/>
<path d="M386.476 459.988L484.989 712.261L458.068 743.091L377.57 524.613L386.476 459.988Z" fill="#F8AD48"/>
<path d="M556.483 633.437L528.77 663.897L425.186 399.737L479.876 425.24L556.483 633.437Z" fill="#F8AD48"/>
<path d="M555.543 463.698L599.066 585.573L626.374 555.981L602.324 483.395L555.543 463.698Z" fill="#F8AD48"/>
<path d="M679.926 508.454C689.906 498.006 698.298 485.9 704.657 472.262C739.308 397.953 700.675 306.591 618.34 268.198C536.011 229.807 441.198 258.942 406.547 333.251C400.188 346.888 396.305 361.098 394.715 375.458C376.22 374.082 358.641 382.957 351.015 399.311C340.869 421.07 352.18 447.808 376.285 459.049C395.963 468.225 418.101 464.22 431.061 450.579C428.97 469.288 440.105 488.808 459.806 497.995C480.127 507.471 503.034 502.853 515.795 488.107C512.719 507.369 523.9 527.883 544.218 537.357C563.931 546.55 586.041 542.532 599.031 528.889C596.906 547.598 608.037 567.117 627.742 576.305C651.845 587.544 679.597 579.022 689.743 557.263C697.369 540.909 692.86 521.747 679.926 508.454Z" fill="#EE569E"/>
<path d="M711.525 421.749C720.25 410.488 727.315 397.565 732.305 383.154C759.452 304.572 714.83 211.391 632.616 175.031C550.386 138.663 461.734 172.897 434.567 251.462C429.589 265.886 427.038 280.8 426.687 295.762C408.817 295.117 392.665 305.063 386.686 322.358C378.731 345.369 391.794 372.637 415.874 383.28C435.543 391.989 456.455 386.889 467.777 372.183C467.31 391.688 479.611 411.476 499.274 420.169C519.583 429.154 541.198 423.393 552.245 407.553C550.871 427.67 563.284 448.49 583.589 457.46C603.283 466.178 624.176 461.07 635.527 446.371C635.03 465.868 647.326 485.656 666.999 494.357C691.065 504.999 717.006 494.981 724.969 471.98C730.949 454.684 725.047 434.998 711.525 421.749Z" fill="#F181B2"/>
<path d="M737.195 351.25C747.884 340.631 756.956 328.418 763.971 314.775C802.164 240.417 764.781 151.748 680.422 116.736C596.076 81.7161 496.745 113.628 458.535 187.985C451.536 201.632 447.077 215.77 444.998 229.957C425.832 229.225 407.306 238.559 398.896 254.928C387.713 276.704 398.657 302.655 423.364 312.902C443.53 321.275 466.62 316.571 480.496 302.7C477.767 321.2 488.743 340.04 508.919 348.42C529.755 357.071 553.674 351.738 567.37 336.786C563.593 355.853 574.591 375.678 595.425 384.329C615.605 392.705 638.691 387.995 652.573 374.119C649.82 392.625 660.797 411.466 680.985 419.845C705.677 430.094 734.746 420.757 745.939 398.989C754.345 382.62 750.241 363.908 737.195 351.25Z" fill="#F6B9D3"/>
<g opacity="0.27">
<path opacity="0.27" d="M619.979 132.685C619.979 132.685 533.181 111.77 470.392 221.675C470.392 221.675 471.87 235.063 492.624 227.809C492.624 227.809 578.542 138.763 622.935 159.463C622.935 159.463 650.139 142.516 619.979 132.685Z" fill="#FEFEFE"/>
</g>
<path d="M597.278 508.375C593.92 515.576 586.23 519.097 580.1 516.238C573.971 513.38 571.724 505.225 575.082 498.024C578.44 490.823 586.131 487.303 592.26 490.161C598.39 493.019 600.636 501.173 597.278 508.375Z" fill="#F181B2"/>
<path d="M458.883 358.119C456.197 363.879 450.115 366.73 445.3 364.484C440.484 362.238 438.757 355.747 441.443 349.986C444.13 344.225 450.212 341.376 455.028 343.622C459.844 345.867 461.57 352.357 458.883 358.119Z" fill="#F181B2"/>
<g opacity="0.4">
<path opacity="0.4" d="M510.148 366.15C508.134 370.47 502.597 372.152 497.781 369.907C492.965 367.661 490.694 362.338 492.709 358.018C494.724 353.696 500.261 352.014 505.077 354.26C509.893 356.505 512.163 361.829 510.148 366.15Z" fill="#F181B2"/>
</g>
<path d="M407.135 417.592L405.154 420.875C402.975 424.482 398.529 425.747 395.274 423.685L381.954 415.247C378.699 413.185 377.818 408.546 379.997 404.937L381.978 401.656C384.157 398.048 388.603 396.783 391.859 398.845L405.178 407.283C408.434 409.345 409.314 413.985 407.135 417.592Z" fill="#F181B2"/>
<path d="M495.786 447.29L493.69 446.312C488.162 443.735 485.749 437.103 488.326 431.576L490.303 427.336C492.88 421.809 499.512 419.395 505.04 421.972L507.136 422.95C512.663 425.527 515.077 432.159 512.499 437.686L510.522 441.926C507.945 447.453 501.313 449.867 495.786 447.29Z" fill="#F181B2"/>
<g opacity="0.27">
<path opacity="0.27" d="M658.692 178.409L641.641 170.458C638.483 168.985 637.104 165.196 638.577 162.038L644.57 149.186C646.042 146.027 649.832 144.648 652.99 146.121L670.041 154.072C673.199 155.545 674.578 159.334 673.106 162.492L667.112 175.344C665.64 178.503 661.851 179.882 658.692 178.409Z" fill="#FEFEFE"/>
</g>
</svg>
